<?xml version="1.0"?>
<!DOCTYPE svg PUBLIC "-//W3C//DTD SVG 1.1//EN" "http://www.w3.org/Graphics/SVG/1.1/DTD/svg11.dtd">
<!--Phoronix Test Suite v7.8.0 [ http://www.phoronix-test-suite.com/ ]-->
<svg xmlns="http://www.w3.org/2000/svg" xmlns:xlink="http://www.w3.org/1999/xlink" version="1.1" font-family="sans-serif, droid-sans, helvetica, verdana, tahoma" viewbox="0 0 692 217" width="692" height="217" preserveAspectRatio="xMinYMin meet"><rect x="0" y="0" width="692" height="217" fill="#FEFEFE" stroke="#757575" stroke-width="2"/><rect x="1" y="1" width="691" height="216" fill="#FEFEFE" stroke="#757575" stroke-width="1"/><path d="m74 22v9m-5-16v16m-5-28v28m-23-2h12.5c2.485281 0 4.5-2.014719 4.5-4.5s-2.014719-4.5-4.5-4.5h-8c-2.485281 0-4.5-2.014719-4.5-4.5s2.014719-4.5 4.5-4.5h12.5m-21 5h-11m11 13h-2c-4.970563 0-9-4.029437-9-9v-20m-24 40v-20c0-4.970563 4.0294373-9 9-9 4.970563 0 9 4.029437 9 9s-4.029437 9-9 9h-9" stroke="#000000" stroke-width="4" fill="none" transform="translate(96,28)"/><line x1="272" y1="113" x2="692" y2="113" stroke="#BABABA" stroke-width="176" stroke-dasharray="140,140"/><line x1="346" y1="73" x2="346" y2="201" stroke="#949494" stroke-width="692" stroke-dasharray="16,16"/><line x1="272" y1="113" x2="692" y2="113" stroke="#757575" stroke-width="176" stroke-dasharray="1,139"/><rect x="1" y="1" width="690" height="25" fill="#231f20"/><text x="5" y="19" font-size="17" fill="#FEFEFE" text-anchor="start">KeijiU</text><line x1="1" y1="25" x2="691" y2="25" stroke="#757575" stroke-width="1"/><g font-size="10" font-weight="bold" fill="#065695" text-anchor="end"><a xlink:href="https://openbenchmarking.org/test/pts/aio-stress-1.1.1" xlink:show="new"><text x="270" y="85">aio-stress: Test: Random Write</text></a><a xlink:href="https://openbenchmarking.org/test/pts/glibc-bench-1.5.0" xlink:show="new"><text x="270" y="101">glibc-bench: Benchmark: ffs</text></a><a xlink:href="https://openbenchmarking.org/test/pts/glibc-bench-1.5.0" xlink:show="new"><text x="270" y="117">glibc-bench: Benchmark: sqrt</text></a><a xlink:href="https://openbenchmarking.org/test/pts/glibc-bench-1.5.0" xlink:show="new"><text x="270" y="133">glibc-bench: Benchmark: tanh</text></a><a xlink:href="https://openbenchmarking.org/test/pts/glibc-bench-1.5.0" xlink:show="new"><text x="270" y="149">glibc-bench: Benchmark: ffsll</text></a><a xlink:href="https://openbenchmarking.org/test/pts/glibc-bench-1.5.0" xlink:show="new"><text x="270" y="165">glibc-bench: Benchmark: pthread_once</text></a><a xlink:href="https://openbenchmarking.org/test/pts/ffmpeg-2.7.0" xlink:show="new"><text x="270" y="181">ffmpeg: H.264 HD To NTSC DV</text></a><a xlink:href="https://openbenchmarking.org/test/pts/glmark2-1.1.0" xlink:show="new"><text x="270" y="197">glmark2: Resolution: 800 x 600</text></a></g><g font-size="10" fill="#065695" font-weight="bold" text-anchor="middle" dominant-baseline="text-before-edge"><text x="342" y="49">VBOX HDD</text><text x="482" y="49">Intel Core i5-2400</text><text x="622" y="49">llvmpipe</text></g><g fill="#BABABA"/><g text-anchor="middle" font-size="10" fill="#065695"><text x="342" y="86" xlink:title="STD Dev: 59.04%;  STD Error: 152.35">632.11</text><text x="482" y="102" xlink:title="STD Dev: 0.46%;  STD Error: 0.02">7.60</text><text x="482" y="118" xlink:title="STD Dev: 0.31%;  STD Error: 0.03">17.07</text><text x="482" y="134" xlink:title="STD Dev: 0.78%;  STD Error: 0.33">73.47</text><text x="482" y="150" xlink:title="STD Dev: 1.09%;  STD Error: 0.06">8.73</text><text x="482" y="166" xlink:title="STD Dev: 1.02%;  STD Error: 0.05">9.07</text><text x="482" y="182" xlink:title="STD Dev: 1.31%;  STD Error: 0.12">15.37</text><text x="622" y="198">146</text></g><line x1="346" y1="73" x2="346" y2="201" stroke="#949494" stroke-width="692" stroke-dasharray="1,15"/><rect x="0" y="201" width="692" height="16" fill="#231f20"/><a xlink:href="https://www.phoronix-test-suite.com/" xlink:show="new"><text x="690" y="214" font-size="10" fill="#FFFFFF" text-anchor="end" xlink:show="new">PHORONIX-TEST-SUITE.COM</text></a></svg>
