<?xml version="1.0"?>
<!DOCTYPE svg PUBLIC "-//W3C//DTD SVG 1.1//EN" "http://www.w3.org/Graphics/SVG/1.1/DTD/svg11.dtd">
<!--Phoronix Test Suite v7.8.0 [ http://www.phoronix-test-suite.com/ ]-->
<svg xmlns="http://www.w3.org/2000/svg" xmlns:xlink="http://www.w3.org/1999/xlink" version="1.1" font-family="sans-serif, droid-sans, helvetica, verdana, tahoma" viewbox="0 0 311 573" width="311" height="573" preserveAspectRatio="xMinYMin meet"><rect x="0" y="0" width="311" height="573" fill="#FEFEFE" stroke="#757575" stroke-width="2"/><rect x="2" y="1" width="308" height="38" fill="#231f20" stroke="#757575" stroke-width="1"/><text x="155.5" y="19" font-size="17" fill="#FEFEFE" text-anchor="middle" font-weight="bold">KeijiU</text><a xlink:href="https://www.phoronix-test-suite.com/" xlink:show="new"><text x="4" y="36" font-size="8" fill="#FEFEFE" text-anchor="start" xlink:show="new" font-weight="bold">PHORONIX-TEST-SUITE.COM</text></a><a xlink:href="https://www.phoronix-test-suite.com/" xlink:show="new"><text x="307" y="36" font-size="8" fill="#FEFEFE" text-anchor="end" xlink:show="new" font-weight="bold">Phoronix Test Suite 7.8.0</text></a><g fill="#949494"><rect x="0" y="55" width="311" height="16"/><rect x="0" y="87" width="311" height="16"/><rect x="0" y="119" width="311" height="16"/><rect x="0" y="151" width="311" height="16"/><rect x="0" y="183" width="311" height="16"/><rect x="0" y="215" width="311" height="16"/><rect x="0" y="247" width="311" height="16"/><rect x="0" y="279" width="311" height="16"/></g><g fill="none" stroke-width="1" stroke="#005a00"/><g font-size="10" fill="#065695" text-anchor="middle" font-weight="bold"><a xlink:href="http://openbenchmarking.org/s/Intel Core i5-2400 @ 3.09GHz (3 Cores)" xlink:show="new"><text x="155.5" y="52" xlink:title="Processor: Intel Core i5-2400 @ 3.09GHz (3 Cores)">Intel Core i5-2400 @ 3.09GHz (3 Cores)</text></a><a xlink:href="http://openbenchmarking.org/s/Oracle VirtualBox v1.2" xlink:show="new"><text x="155.5" y="68" xlink:title="Motherboard: Oracle VirtualBox v1.2">Oracle VirtualBox v1.2</text></a><a xlink:href="http://openbenchmarking.org/s/Intel 440FX- 82441FX PMC" xlink:show="new"><text x="155.5" y="84" xlink:title="Chipset: Intel 440FX- 82441FX PMC">Intel 440FX- 82441FX PMC</text></a><a xlink:href="http://openbenchmarking.org/s/4096MB" xlink:show="new"><text x="155.5" y="100" xlink:title="Memory: 4096MB">4096MB</text></a><a xlink:href="http://openbenchmarking.org/s/52GB VBOX HDD" xlink:show="new"><text x="155.5" y="116" xlink:title="Disk: 52GB VBOX HDD">52GB VBOX HDD</text></a><a xlink:href="http://openbenchmarking.org/s/llvmpipe 3968MB" xlink:show="new"><text x="155.5" y="132" xlink:title="Graphics: llvmpipe 3968MB">llvmpipe 3968MB</text></a><a xlink:href="http://openbenchmarking.org/s/VBOX monitor" xlink:show="new"><text x="155.5" y="148" xlink:title="Monitor: VBOX monitor">VBOX monitor</text></a><a xlink:href="http://openbenchmarking.org/s/Intel 82540EM Gigabit" xlink:show="new"><text x="155.5" y="164" xlink:title="Network: Intel 82540EM Gigabit">Intel 82540EM Gigabit</text></a><a xlink:href="http://openbenchmarking.org/s/Fedora 27" xlink:show="new"><text x="155.5" y="180" xlink:title="OS: Fedora 27">Fedora 27</text></a><a xlink:href="http://openbenchmarking.org/s/4.14.18-300.fc27.x86_64 (x86_64)" xlink:show="new"><text x="155.5" y="196" xlink:title="Kernel: 4.14.18-300.fc27.x86_64 (x86_64)">4.14.18-300.fc27.x86_64 (x86_64)</text></a><a xlink:href="http://openbenchmarking.org/s/GNOME Shell 3.26.2" xlink:show="new"><text x="155.5" y="212" xlink:title="Desktop: GNOME Shell 3.26.2">GNOME Shell 3.26.2</text></a><a xlink:href="http://openbenchmarking.org/s/2.1 Mesa 17.2.4 (LLVM 5.0 256 bits)" xlink:show="new"><text x="155.5" y="228" xlink:title="OpenGL: 2.1 Mesa 17.2.4 (LLVM 5.0 256 bits)">2.1 Mesa 17.2.4 (LLVM 5.0 256 bits)</text></a><a xlink:href="http://openbenchmarking.org/s/GCC 7.3.1 20180130" xlink:show="new"><text x="155.5" y="244" xlink:title="Compiler: GCC 7.3.1 20180130">GCC 7.3.1 20180130</text></a><a xlink:href="http://openbenchmarking.org/s/ext4" xlink:show="new"><text x="155.5" y="260" xlink:title="File-System: ext4">ext4</text></a><a xlink:href="http://openbenchmarking.org/s/1680x1050" xlink:show="new"><text x="155.5" y="276" xlink:title="Screen Resolution: 1680x1050">1680x1050</text></a><a xlink:href="http://openbenchmarking.org/s/Oracle VirtualBox" xlink:show="new"><text x="155.5" y="292" xlink:title="System Layer: Oracle VirtualBox">Oracle VirtualBox</text></a></g><g font-size="7" fill="#065695" text-anchor="end"><text x="307" y="48">Processor</text><text x="307" y="64">Motherboard</text><text x="307" y="80">Chipset</text><text x="307" y="96">Memory</text><text x="307" y="112">Disk</text><text x="307" y="128">Graphics</text><text x="307" y="144">Monitor</text><text x="307" y="160">Network</text><text x="307" y="176">OS</text><text x="307" y="192">Kernel</text><text x="307" y="208">Desktop</text><text x="307" y="224">OpenGL</text><text x="307" y="240">Compiler</text><text x="307" y="256">File-System</text><text x="307" y="272">Screen Resolution</text><text x="307" y="288">System Layer</text></g><g stroke="#757575" stroke-width="1"><line x1="0" y1="39" x2="311" y2="39"/><line x1="0" y1="55" x2="311" y2="55"/><line x1="0" y1="71" x2="311" y2="71"/><line x1="0" y1="87" x2="311" y2="87"/><line x1="0" y1="103" x2="311" y2="103"/><line x1="0" y1="119" x2="311" y2="119"/><line x1="0" y1="135" x2="311" y2="135"/><line x1="0" y1="151" x2="311" y2="151"/><line x1="0" y1="167" x2="311" y2="167"/><line x1="0" y1="183" x2="311" y2="183"/><line x1="0" y1="199" x2="311" y2="199"/><line x1="0" y1="215" x2="311" y2="215"/><line x1="0" y1="231" x2="311" y2="231"/><line x1="0" y1="247" x2="311" y2="247"/><line x1="0" y1="263" x2="311" y2="263"/><line x1="0" y1="279" x2="311" y2="279"/></g><rect x="1" y="295" width="309" height="278" fill="#231f20"/><text x="4" y="316" font-size="9" fill="#FEFEFE" text-anchor="start" xlink:title=""><tspan x="4" y="316" dx="0" dy="0">- VBOX HDD, Intel Core i5-2400:</tspan><tspan x="4" y="316" dx="5" dy="10"> --build=x86_64-redhat-linux</tspan><tspan x="4" y="316" dx="5" dy="20"> --disable-libunwind-exceptions --enable-__cxa_atexit</tspan><tspan x="4" y="316" dx="5" dy="30"> --enable-bootstrap --enable-checking=release</tspan><tspan x="4" y="316" dx="5" dy="40"> --enable-gnu-indirect-function</tspan><tspan x="4" y="316" dx="5" dy="50"> --enable-gnu-unique-object --enable-initfini-array</tspan><tspan x="4" y="316" dx="5" dy="60"> --enable-languages=c,c++,objc,obj-c++,fortran,ada,go,lto</tspan><tspan x="4" y="316" dx="5" dy="70"> --enable-libmpx --enable-multilib</tspan><tspan x="4" y="316" dx="5" dy="80"> --enable-offload-targets=nvptx-none --enable-plugin</tspan><tspan x="4" y="316" dx="5" dy="90"> --enable-shared --enable-threads=posix</tspan><tspan x="4" y="316" dx="5" dy="100"> --mandir=/usr/share/man --with-arch_32=i686</tspan><tspan x="4" y="316" dx="5" dy="110"> --with-gcc-major-version-only --with-isl</tspan><tspan x="4" y="316" dx="5" dy="120"> --with-linker-hash-style=gnu --with-tune=generic --without-cuda-driver </tspan></text><text x="4" y="459" font-size="9" fill="#FEFEFE" text-anchor="start" width="307">- VBOX HDD: CFQ / data=ordered,relatime,rw</text><text x="4" y="471" font-size="9" fill="#FEFEFE" text-anchor="start" xlink:title=""><tspan x="4" y="471" dx="0" dy="0">- KPTI + __user pointer sanitization + Full generic</tspan><tspan x="4" y="471" dx="5" dy="10"> retpoline Protection </tspan></text><text x="4" y="493" font-size="9" fill="#FEFEFE" text-anchor="start" width="307">- llvmpipe: Python 2.7.14 + Python 3.6.4</text></svg>
